/Applications/krita.app/Contents/MacOS/ffmpeg -hide_banner -y -y -r 16 -start_number 0 -start_number_range 1 -i /Users/muhammadzainasad/Documents/Documents - Muhammad’s MacBook Air/Projects/Plant Whisperer/Plant/Final /POts/frame%04d.png -i /Users/muhammadzainasad/Documents/Documents - Muhammad’s MacBook Air/Projects/Plant Whisperer/Plant/Final /POts/KritaTempPalettegen_%06d.png -lavfi [0:v][1:v]paletteuse=dither=sierra2_4a:diff_mode=none -f gif -loop 0 -gifflags +transdiff /Users/muhammadzainasad/Documents/Documents - Muhammad’s MacBook Air/Projects/Plant Whisperer/Plant/Final /POts/thirsty.gif
=====================================================
Input #0, image2, from '/Users/muhammadzainasad/Documents/Documents - Muhammad’s MacBook Air/Projects/Plant Whisperer/Plant/Final /POts/frame%04d.png':
  Duration: 00:00:00.68, start: 0.000000, bitrate: N/A
  Stream #0:0: Video: png, rgba(pc, gbr/unknown/unknown), 1280x2856 [SAR 11811:11811 DAR 160:357], 25 fps, 25 tbr, 25 tbn
Input #1, image2, from '/Users/muhammadzainasad/Documents/Documents - Muhammad’s MacBook Air/Projects/Plant Whisperer/Plant/Final /POts/KritaTempPalettegen_%06d.png':
  Duration: 00:00:00.04, start: 0.000000, bitrate: N/A
  Stream #1:0: Video: png, rgba(pc, gbr/unknown/unknown), 16x16 [SAR 1:1 DAR 1:1], 25 fps, 25 tbr, 25 tbn
Stream mapping:
  Stream #0:0 (png) -> paletteuse
  Stream #1:0 (png) -> paletteuse
  paletteuse:default -> Stream #0:0 (gif)
Press [q] to stop, [?] for help
Output #0, gif, to '/Users/muhammadzainasad/Documents/Documents - Muhammad’s MacBook Air/Projects/Plant Whisperer/Plant/Final /POts/thirsty.gif':
  Metadata:
    encoder         : Lavf61.7.100
  Stream #0:0: Video: gif, pal8(pc, gbr/unknown/unknown, progressive), 1280x2856 [SAR 1:1 DAR 160:357], q=2-31, 200 kb/s, 16 fps, 100 tbn
      Metadata:
        encoder         : Lavc61.19.101 gif
[out#0/gif @ 0xab9014800] video:870KiB audio:0KiB subtitle:0KiB other streams:0KiB global headers:0KiB muxing overhead: 0.002246%
frame=   17 fps=0.0 q=-0.0 Lsize=     870KiB time=00:00:01.06 bitrate=6705.8kbits/s speed=2.42x    
